# Blender 5.1.2
# www.blender.org
mtllib cm_keywhite.mtl
o cm_keywhite
v 0.034866 0.000000 0.989879
v 1.000000 0.000000 0.000000
v -0.000000 0.000000 0.984321
v 1.000000 0.000000 0.984321
v -0.000000 0.000000 0.000000
v 0.965134 0.000000 0.989879
v 1.000000 0.915385 0.000000
v 1.000000 0.915385 0.984321
v 0.965134 0.915385 0.989879
v -0.000000 0.915385 0.000000
v 0.034866 0.915385 0.989879
v -0.000000 0.915385 0.984321
v 0.965134 1.000000 0.000000
v 1.000000 0.956907 0.000000
v 0.965134 0.956907 1.000000
v 1.000000 0.956907 0.994442
v 0.965134 1.000000 0.994442
v -0.000000 0.956907 0.000000
v 0.034866 1.000000 0.000000
v -0.000000 0.956907 0.994442
v 0.034866 0.956907 1.000000
v 0.034866 1.000000 0.994442
v -0.000000 0.915385 0.994442
v 0.034866 0.915385 1.000000
v 0.965134 0.915385 1.000000
v 1.000000 0.915385 0.994442
vn 1.0000 -0.0000 -0.0000
vn 0.8903 -0.0000 0.4553
vn -0.0000 -1.0000 -0.0000
vn 0.0279 -0.0000 0.9996
vn 0.0053 -0.0000 1.0000
vn -0.0053 -0.0000 1.0000
vn 0.0040 0.0001 1.0000
vn -0.0040 -0.0001 1.0000
vn -0.9040 0.0001 0.4275
vn 0.8857 0.0955 0.4543
vn -0.0000 -0.0000 -1.0000
vn 0.0786 0.0637 0.9949
vn 0.7657 0.2653 0.5860
vn 0.4384 0.5458 0.7140
vn -0.7657 0.2653 0.5860
vn -0.0786 0.0637 0.9949
vn -0.5372 0.5407 0.6474
vn -0.7607 -0.0000 0.6491
vn -0.0790 -0.0000 0.9969
vn 0.9427 0.3336 -0.0000
vn 0.1715 0.9852 -0.0000
vn -0.1517 0.9884 -0.0000
vn 0.0790 -0.0000 0.9969
vn 0.9916 -0.0000 -0.1297
vn 0.9999 -0.0000 -0.0109
vn 0.7607 -0.0000 0.6491
vn -0.9427 0.3336 -0.0000
vn -1.0000 -0.0000 -0.0000
vn -0.8887 0.0923 0.4492
vn -0.9915 -0.0000 -0.1297
vn -0.0281 -0.0000 0.9996
vn 0.0109 -0.0000 0.9999
vt 0.603846 0.500000
vt 0.375000 0.748610
vt 0.375000 0.500000
vt 0.603846 0.749074
vt 0.603846 0.758717
vt 0.375000 0.991283
vt 0.372094 0.755811
vt 0.603846 0.003201
vt 0.375000 0.001390
vt 0.375000 0.000000
vt 0.603846 0.250000
vt 0.375000 0.250000
vt 0.614227 0.758717
vt 0.614227 0.748495
vt 0.629358 0.753663
vt 0.614227 0.001390
vt 0.614227 0.000000
vt 0.625000 0.001390
vt 0.603846 0.001390
vt 0.603846 0.000000
vt 0.625000 0.991283
vt 0.614227 0.500000
vt 0.630811 0.497094
vt 0.625000 0.254358
vt 0.603846 0.991283
vt 0.603846 0.745428
vt 0.603846 0.742930
vt 0.866284 0.500000
vt 0.614227 0.250000
vt 0.603846 0.003920
vt 0.603846 0.007070
vt 0.603846 0.004572
vt 0.614227 0.991283
vt 0.866283 0.748610
s 1
usemtl Material
f 7/1/1 4/2/2 2/3/1
s 0
f 26/4/3 9/5/4 8/4/3
s 1
f 9/5/5 1/6/6 6/7/7
f 11/8/8 3/9/9 1/10/6
f 6/7/7 8/4/10 9/5/5
f 10/11/11 2/3/11 5/12/11
f 15/13/12 16/14/13 17/15/14
f 20/16/15 21/17/16 22/18/17
f 21/17/16 23/19/18 24/20/19
f 22/21/17 15/13/12 17/15/14
f 17/15/14 14/22/20 13/23/21
f 19/24/22 20/16/15 22/18/17
f 25/5/23 16/14/13 15/13/12
s 0
f 23/19/3 11/20/24 24/20/3
f 24/25/3 9/5/25 25/5/3
s 1
f 16/14/13 26/26/26 8/27/10
f 19/28/22 17/15/14 13/23/21
f 13/23/11 14/22/11 7/1/11
f 15/13/12 24/25/19 25/5/23
f 18/29/27 10/11/28 12/30/29
f 10/11/28 3/9/9 12/31/29
f 7/1/1 8/4/10 4/2/2
s 0
f 26/4/3 25/5/3 9/5/30
s 1
f 9/5/5 11/25/8 1/6/6
f 11/8/8 12/32/29 3/9/9
f 6/7/7 4/2/2 8/4/10
f 10/11/11 7/1/11 2/3/11
f 21/17/16 20/16/15 23/19/18
f 22/21/17 21/33/16 15/13/12
f 17/15/14 16/14/13 14/22/20
f 19/24/22 18/29/27 20/16/15
f 25/5/23 26/4/26 16/14/13
s 0
f 23/19/3 12/19/3 11/20/31
f 24/25/3 11/25/28 9/5/32
s 1
f 8/27/10 7/1/1 14/22/20
f 14/22/20 16/14/13 8/27/10
f 19/28/22 22/34/17 17/15/14
f 7/1/11 10/11/11 13/23/11
f 10/11/11 18/29/11 19/24/11
f 13/23/11 10/11/11 19/24/11
f 15/13/12 21/33/16 24/25/19
f 12/30/29 23/19/18 20/16/15
f 20/16/15 18/29/27 12/30/29
f 10/11/28 5/12/28 3/9/9
